<?xml version="1.0" encoding="UTF-8"?>
<!DOCTYPE svg PUBLIC "-//W3C//DTD SVG 1.1//EN" "http://www.w3.org/Graphics/SVG/1.1/DTD/svg11.dtd">
<svg xmlns="http://www.w3.org/2000/svg" version="1.1" width="512px" height="512px" style="shape-rendering:geometricPrecision; text-rendering:geometricPrecision; image-rendering:optimizeQuality; fill-rule:evenodd; clip-rule:evenodd" xmlns:xlink="http://www.w3.org/1999/xlink">
<g><path style="opacity:0.989" fill="#100a35" d="M 445.5,511.5 C 318.833,511.5 192.167,511.5 65.5,511.5C 65.3335,500.495 65.5002,489.495 66,478.5C 67.5429,476.622 69.3762,475.122 71.5,474C 97.8312,473.5 124.165,473.333 150.5,473.5C 150.666,463.494 150.5,453.494 150,443.5C 86.3593,405.939 50.0259,350.273 41,276.5C 35.777,199.79 62.277,136.623 120.5,87C 189.775,35.8933 264.442,26.56 344.5,59C 417.588,94.9632 459.422,153.463 470,234.5C 475.223,311.212 448.723,374.379 390.5,424C 381.095,431.121 371.262,437.621 361,443.5C 360.5,453.494 360.334,463.494 360.5,473.5C 386.835,473.333 413.169,473.5 439.5,474C 441.624,475.122 443.457,476.622 445,478.5C 445.5,489.495 445.667,500.495 445.5,511.5 Z"/></g>
<g><path style="opacity:1" fill="#9f5ffe" d="M 237.5,50.5 C 326.069,47.3881 392.569,83.7215 437,159.5C 465.692,217.461 468.025,276.461 444,336.5C 411.602,405.974 357.435,446.808 281.5,459C 193.054,466.359 125.221,432.859 78,358.5C 46.1308,299.665 42.1308,238.998 66,176.5C 92.5976,116.906 137.098,77.4062 199.5,58C 212.113,54.513 224.78,52.013 237.5,50.5 Z"/></g>
<g><path style="opacity:1" fill="#feb5f8" d="M 120.5,121.5 C 210.17,210.669 299.836,300.169 389.5,390C 347.45,430.467 297.117,448.8 238.5,445C 174.212,437.325 125.045,406.158 91,351.5C 61.3017,296.525 57.635,239.858 80,181.5C 90.198,159.16 103.698,139.16 120.5,121.5 Z"/></g>
</svg>
